<svg width="119" height="111" viewBox="0 0 119 111" fill="none" xmlns="http://www.w3.org/2000/svg">
<circle cx="59.625" cy="55.429" r="54.7674" fill="url(#paint0_linear_2_606)"/>
<path d="M30.7266 81.8556C30.375 81.8556 30.0391 81.8165 29.7188 81.7384L29.8359 80.4786C30.168 80.5724 30.4922 80.6193 30.8086 80.6193C31.2422 80.6193 31.5605 80.5021 31.7637 80.2677C31.9941 80.0021 32.1094 79.5607 32.1094 78.9435V73.1661H33.6914V78.8556C33.6914 80.8556 32.7031 81.8556 30.7266 81.8556ZM36.8086 81.8322C36.207 81.8322 35.5977 81.7794 34.9805 81.674L35.0801 80.379C35.7051 80.5157 36.3281 80.5841 36.9492 80.5841C38.3359 80.5841 39.0293 80.0529 39.0293 78.9904V78.8087H38.0918C35.9473 78.8087 34.875 77.881 34.875 76.0255C34.875 75.174 35.1289 74.4747 35.6367 73.9279C36.207 73.3185 37.0137 73.0138 38.0566 73.0138C38.998 73.0138 39.834 73.1525 40.5645 73.4298V77.5607H41.7363V78.8087H40.5645V78.8322C40.5645 79.7228 40.2734 80.4298 39.6914 80.9532C39.043 81.5392 38.082 81.8322 36.8086 81.8322ZM39.0293 74.4786C38.7246 74.3341 38.3438 74.2618 37.8867 74.2618C37.4453 74.2618 37.0957 74.4142 36.8379 74.7189C36.584 75.0157 36.457 75.4025 36.457 75.879C36.457 77.0001 37.0586 77.5607 38.2617 77.5607H39.0293V74.4786ZM41.5664 77.5607H43.1719V73.1661H44.7598V73.4708C44.7598 74.1427 44.7109 74.7345 44.6133 75.2462H44.6367C44.8945 74.5392 45.3105 73.9845 45.8848 73.5822C46.4238 73.2032 47.0195 73.0138 47.6719 73.0138C48.4961 73.0138 49.127 73.256 49.5645 73.7404C49.9941 74.213 50.209 74.879 50.209 75.7384C50.209 76.4728 50.0352 77.0802 49.6875 77.5607H50.9531V78.8087H41.5664V77.5607ZM46.6758 77.5607C47.9414 77.5607 48.5742 76.9845 48.5742 75.8322C48.5742 74.7931 48.166 74.2736 47.3496 74.2736C46.7246 74.2736 46.1582 74.6095 45.6504 75.2814C45.1699 75.9181 44.8652 76.6779 44.7363 77.5607H46.6758ZM50.6953 77.5607H52.1836V70.3478H53.7656V78.8087H50.6953V77.5607ZM55.8047 70.3478H57.3867V78.8087H55.8047V70.3478ZM67.0957 78.8087C65.1543 78.8087 64.0977 78.0333 63.9258 76.4825H63.6621C63.3145 76.4825 63.0879 76.5958 62.9824 76.8224C62.877 77.049 62.8691 77.4435 62.959 78.006L63.5801 81.9259H62.0566L61.4473 78.1232C61.3066 77.2286 61.4102 76.5333 61.7578 76.0372C62.1406 75.5021 62.793 75.2345 63.7148 75.2345H64.002C64.1465 74.5743 64.4688 74.047 64.9688 73.6525C65.5078 73.2267 66.1895 73.0138 67.0137 73.0138C68.8223 73.0138 69.7266 73.9337 69.7266 75.7736V78.8087H67.0957ZM68.1914 75.9669C68.1914 74.8302 67.7617 74.2618 66.9023 74.2618C66.4609 74.2618 66.1113 74.4142 65.8535 74.7189C65.6035 75.0157 65.4785 75.4025 65.4785 75.879C65.4785 77.0001 66.0781 77.5607 67.2773 77.5607H68.1914V75.9669ZM72.7031 81.8322C72.1016 81.8322 71.4922 81.7794 70.875 81.674L70.9746 80.379C71.5996 80.5157 72.2227 80.5841 72.8438 80.5841C74.2305 80.5841 74.9238 80.0529 74.9238 78.9904V78.8087H73.9863C71.8418 78.8087 70.7695 77.881 70.7695 76.0255C70.7695 75.174 71.0234 74.4747 71.5312 73.9279C72.1016 73.3185 72.9082 73.0138 73.9512 73.0138C74.8926 73.0138 75.7285 73.1525 76.459 73.4298V77.5607H77.6309V78.8087H76.459V78.8322C76.459 79.7228 76.168 80.4298 75.5859 80.9532C74.9375 81.5392 73.9766 81.8322 72.7031 81.8322ZM74.9238 74.4786C74.6191 74.3341 74.2383 74.2618 73.7812 74.2618C73.3398 74.2618 72.9902 74.4142 72.7324 74.7189C72.4785 75.0157 72.3516 75.4025 72.3516 75.879C72.3516 77.0001 72.9531 77.5607 74.1562 77.5607H74.9238V74.4786ZM77.4609 77.5607H79.1426V73.1661H80.7246V77.5607H81.9023V78.8087H77.4609V77.5607ZM79.043 81.4396C78.8164 81.4396 78.6211 81.3595 78.457 81.1993C78.2969 81.0392 78.2168 80.8419 78.2168 80.6075C78.2168 80.381 78.2969 80.1857 78.457 80.0216C78.6211 79.8615 78.8164 79.7814 79.043 79.7814C79.2734 79.7814 79.4688 79.8615 79.6289 80.0216C79.793 80.1818 79.875 80.3771 79.875 80.6075C79.875 80.838 79.793 81.0333 79.6289 81.1935C79.4688 81.3575 79.2734 81.4396 79.043 81.4396ZM81.7266 77.5607H83.2148V70.3478H84.7969V78.8087H81.7266V77.5607ZM86.8359 70.3478H88.418V78.8087H86.8359V70.3478Z" fill="#DF3130"/>
<path d="M70.4583 27.6328H53.7917C52.5761 27.6328 51.4103 28.1157 50.5508 28.9752C49.6912 29.8348 49.2083 31.0006 49.2083 32.2161V32.6328H48.7917C47.5761 32.6328 46.4103 33.1157 45.5508 33.9752C44.6912 34.8348 44.2083 36.0006 44.2083 37.2161V50.5495C44.2083 51.7651 44.6912 52.9308 45.5508 53.7904C46.4103 54.6499 47.5761 55.1328 48.7917 55.1328H65.4583C66.6739 55.1328 67.8397 54.6499 68.6993 53.7904C69.5588 52.9308 70.0417 51.7651 70.0417 50.5495V50.1328H70.4583C71.6739 50.1328 72.8397 49.6499 73.6993 48.7904C74.5588 47.9308 75.0417 46.7651 75.0417 45.5495V32.2161C75.0417 31.0006 74.5588 29.8348 73.6993 28.9752C72.8397 28.1157 71.6739 27.6328 70.4583 27.6328ZM51.7083 32.2161C51.7083 31.6636 51.9278 31.1337 52.3185 30.743C52.7092 30.3523 53.2391 30.1328 53.7917 30.1328H70.4583C71.0109 30.1328 71.5408 30.3523 71.9315 30.743C72.3222 31.1337 72.5417 31.6636 72.5417 32.2161V42.5495L68.7583 39.3661C68.6351 39.259 68.4919 39.1774 68.3369 39.1261C68.1819 39.0748 68.0183 39.0548 67.8555 39.0672C67.6927 39.0796 67.534 39.1242 67.3886 39.1984C67.2431 39.2726 67.1139 39.3749 67.0083 39.4995L65.225 41.5995L58.5583 35.1328C58.4518 35.0058 58.3194 34.9029 58.1699 34.831C58.0205 34.7592 57.8575 34.72 57.6917 34.7161C57.5199 34.7226 57.3514 34.7644 57.1965 34.839C57.0417 34.9136 56.9038 35.0193 56.7917 35.1495L51.7083 41.1995V32.2161ZM53.7917 47.6328C53.2391 47.6328 52.7092 47.4133 52.3185 47.0226C51.9278 46.6319 51.7083 46.102 51.7083 45.5495V45.0495L57.825 37.8495L63.5917 43.4995L60.0917 47.6328H53.7917ZM67.5417 50.5495C67.5417 51.102 67.3222 51.6319 66.9315 52.0226C66.5408 52.4133 66.0109 52.6328 65.4583 52.6328H48.7917C48.2391 52.6328 47.7092 52.4133 47.3185 52.0226C46.9278 51.6319 46.7083 51.102 46.7083 50.5495V37.2161C46.7083 36.6636 46.9278 36.1337 47.3185 35.743C47.7092 35.3523 48.2391 35.1328 48.7917 35.1328H49.2083V45.5495C49.2083 46.7651 49.6912 47.9308 50.5508 48.7904C51.4103 49.6499 52.5761 50.1328 53.7917 50.1328H67.5417V50.5495ZM70.4583 47.6328H63.375L68.1083 42.0661L72.4917 45.7828C72.4421 46.2883 72.2067 46.7573 71.8311 47.0991C71.4554 47.4409 70.9662 47.6311 70.4583 47.6328Z" fill="#DF3130"/>
<defs>
<linearGradient id="paint0_linear_2_606" x1="59.625" y1="110.196" x2="59.625" y2="-2.53204" gradientUnits="userSpaceOnUse">
<stop stop-color="#F5B4B2"/>
<stop offset="1" stop-color="#F9DAD8"/>
</linearGradient>
</defs>
</svg>
