<svg width="119" height="111" viewBox="0 0 119 111" fill="none" xmlns="http://www.w3.org/2000/svg">
<circle cx="59.7544" cy="55.429" r="54.7674" fill="url(#paint0_linear_2_678)"/>
<path d="M33.0942 78.8087C30.9497 78.8087 29.8774 77.881 29.8774 76.0255C29.8774 75.174 30.1313 74.4747 30.6392 73.9279C31.2095 73.3185 32.0161 73.0138 33.0591 73.0138C34.0005 73.0138 34.8364 73.1525 35.5669 73.4298V77.5607H36.7388V78.8087H33.0942ZM34.0317 74.4786C33.7271 74.3341 33.3462 74.2618 32.8892 74.2618C32.4478 74.2618 32.0981 74.4142 31.8403 74.7189C31.5864 75.0157 31.4595 75.4025 31.4595 75.879C31.4595 77.0001 32.061 77.5607 33.2642 77.5607H34.0317V74.4786ZM33.897 72.2579C33.6743 72.2579 33.4868 72.1779 33.3345 72.0177C33.1821 71.8615 33.106 71.67 33.106 71.4435C33.106 71.2169 33.1821 71.0236 33.3345 70.8634C33.4907 70.7032 33.6782 70.6232 33.897 70.6232C34.1196 70.6232 34.3071 70.7032 34.4595 70.8634C34.6118 71.0197 34.688 71.213 34.688 71.4435C34.688 71.6661 34.6118 71.8575 34.4595 72.0177C34.3071 72.1779 34.1196 72.2579 33.897 72.2579ZM31.9048 72.2579C31.6821 72.2579 31.4946 72.1779 31.3423 72.0177C31.1899 71.8615 31.1138 71.67 31.1138 71.4435C31.1138 71.2169 31.1899 71.0236 31.3423 70.8634C31.4985 70.7032 31.686 70.6232 31.9048 70.6232C32.1313 70.6232 32.3228 70.7032 32.479 70.8634C32.6313 71.0197 32.7075 71.213 32.7075 71.4435C32.7075 71.6661 32.6313 71.8575 32.479 72.0177C32.3228 72.1779 32.1313 72.2579 31.9048 72.2579ZM36.563 77.5607H38.2446V73.1661H39.8267V77.5607H41.4614V78.8087H36.563V77.5607ZM38.3853 80.6075C38.3853 80.8341 38.3091 81.0255 38.1567 81.1818C38.0005 81.3419 37.8091 81.422 37.5825 81.422C37.3599 81.422 37.1724 81.3439 37.02 81.1876C36.8677 81.0314 36.7915 80.838 36.7915 80.6075C36.7915 80.3849 36.8677 80.1935 37.02 80.0333C37.1763 79.8732 37.3638 79.7931 37.5825 79.7931C37.8091 79.7931 38.0005 79.8712 38.1567 80.0275C38.3091 80.1876 38.3853 80.381 38.3853 80.6075ZM40.3657 80.6075C40.3657 80.8302 40.2896 81.0216 40.1372 81.1818C39.981 81.3419 39.7935 81.422 39.5747 81.422C39.3521 81.422 39.1646 81.3439 39.0122 81.1876C38.8599 81.0314 38.7837 80.838 38.7837 80.6075C38.7837 80.3849 38.8599 80.1935 39.0122 80.0333C39.1685 79.8732 39.356 79.7931 39.5747 79.7931C39.7974 79.7931 39.9849 79.8712 40.1372 80.0275C40.2896 80.1876 40.3657 80.381 40.3657 80.6075ZM49.0845 78.8087C48.4321 78.8087 47.9478 78.754 47.6313 78.6447C47.2915 78.5236 47.0356 78.3029 46.8638 77.9825C46.5786 78.5958 45.9751 78.9025 45.0532 78.9025C44.1978 78.9025 43.6665 78.5919 43.4595 77.9708C43.2134 78.5294 42.6802 78.8087 41.8599 78.8087H41.2739V77.5607H41.8716C42.27 77.5607 42.5474 77.4591 42.7036 77.256C42.8716 77.0411 42.9556 76.6466 42.9556 76.0724V73.8868H44.5376V76.1075C44.5376 76.6857 44.5864 77.0782 44.6841 77.2853C44.7974 77.5314 45.0239 77.6544 45.3638 77.6544C46.0044 77.6544 46.3247 77.1427 46.3247 76.1193V73.4064H47.8481V76.4181C47.8481 76.8868 47.9458 77.1954 48.1411 77.3439C48.3286 77.4884 48.7036 77.5607 49.2661 77.5607H49.5767C49.6353 77.1115 49.6646 76.631 49.6646 76.1193C49.6646 75.0138 49.5474 73.9415 49.313 72.9025L50.8599 72.6915C51.1177 73.7657 51.2466 74.8732 51.2466 76.0138C51.2466 76.4591 51.2271 76.9747 51.188 77.5607H52.3599V78.8087H49.0845ZM52.1841 77.5607H53.8657V73.1661H55.4478V77.5607H57.0825V78.8087H52.1841V77.5607ZM54.0063 80.6075C54.0063 80.8341 53.9302 81.0255 53.7778 81.1818C53.6216 81.3419 53.4302 81.422 53.2036 81.422C52.981 81.422 52.7935 81.3439 52.6411 81.1876C52.4888 81.0314 52.4126 80.838 52.4126 80.6075C52.4126 80.3849 52.4888 80.1935 52.6411 80.0333C52.7974 79.8732 52.9849 79.7931 53.2036 79.7931C53.4302 79.7931 53.6216 79.8712 53.7778 80.0275C53.9302 80.1876 54.0063 80.381 54.0063 80.6075ZM55.9868 80.6075C55.9868 80.8302 55.9106 81.0216 55.7583 81.1818C55.6021 81.3419 55.4146 81.422 55.1958 81.422C54.9731 81.422 54.7856 81.3439 54.6333 81.1876C54.481 81.0314 54.4048 80.838 54.4048 80.6075C54.4048 80.3849 54.481 80.1935 54.6333 80.0333C54.7896 79.8732 54.9771 79.7931 55.1958 79.7931C55.4185 79.7931 55.606 79.8712 55.7583 80.0275C55.9106 80.1876 55.9868 80.381 55.9868 80.6075ZM57.5806 71.3204C57.8774 71.3204 58.1001 71.3361 58.2485 71.3673C58.1001 71.2931 58.0259 71.1368 58.0259 70.8986C58.0259 70.5236 58.1567 70.2169 58.4185 69.9786C58.7271 69.6974 59.1743 69.5568 59.7603 69.5568C59.9556 69.5568 60.1919 69.5763 60.4692 69.6154L60.3286 70.5177C60.1294 70.4786 59.9282 70.4591 59.7251 70.4591C59.3423 70.4591 59.1509 70.5939 59.1509 70.8634C59.1509 71.1681 59.4263 71.3204 59.9771 71.3204H60.6626V72.2228H57.5806V71.3204ZM56.895 77.5607H58.5767V73.1661H60.1587V78.8087H56.895V77.5607ZM60.9614 81.8556C60.6099 81.8556 60.2739 81.8165 59.9536 81.7384L60.0708 80.4786C60.4028 80.5724 60.7271 80.6193 61.0435 80.6193C61.4771 80.6193 61.7954 80.5021 61.9985 80.2677C62.229 80.0021 62.3442 79.5607 62.3442 78.9435V73.1661H63.9263V78.8556C63.9263 80.8556 62.938 81.8556 60.9614 81.8556ZM68.0747 81.8556C67.7231 81.8556 67.3872 81.8165 67.0669 81.7384L67.1841 80.4786C67.5161 80.5724 67.8403 80.6193 68.1567 80.6193C68.5903 80.6193 68.9087 80.5021 69.1118 80.2677C69.3423 80.0021 69.4575 79.5607 69.4575 78.9435V73.1661H71.0396V78.8556C71.0396 80.8556 70.0513 81.8556 68.0747 81.8556ZM72.9497 70.3478H74.5317V77.5607H75.7329V78.8087H72.9497V70.3478ZM75.5513 77.5607H77.2329V73.1661H78.8149V77.5607H79.9927V78.8087H75.5513V77.5607ZM77.1333 81.4396C76.9067 81.4396 76.7114 81.3595 76.5474 81.1993C76.3872 81.0392 76.3071 80.8419 76.3071 80.6075C76.3071 80.381 76.3872 80.1857 76.5474 80.0216C76.7114 79.8615 76.9067 79.7814 77.1333 79.7814C77.3638 79.7814 77.5591 79.8615 77.7192 80.0216C77.8833 80.1818 77.9653 80.3771 77.9653 80.6075C77.9653 80.838 77.8833 81.0333 77.7192 81.1935C77.5591 81.3575 77.3638 81.4396 77.1333 81.4396ZM79.8169 77.5607H84.4634C84.5024 77.2404 84.522 76.9357 84.522 76.6466C84.522 75.8654 84.3462 75.2911 83.9946 74.924C83.6196 74.5372 83.0103 74.3439 82.1665 74.3439C81.7212 74.3439 81.2622 74.3771 80.7896 74.4435V73.2072C81.3521 73.1329 81.8638 73.0958 82.3247 73.0958C83.6489 73.0958 84.6138 73.3907 85.2192 73.9806C85.8013 74.5431 86.0923 75.4122 86.0923 76.588C86.0923 77.2521 86.0239 77.9923 85.8872 78.8087H79.8169V77.5607ZM82.6587 72.1583C82.4321 72.1583 82.2388 72.0802 82.0786 71.924C81.9146 71.7638 81.8325 71.5665 81.8325 71.3322C81.8325 71.1056 81.9146 70.9103 82.0786 70.7462C82.2388 70.5861 82.4321 70.506 82.6587 70.506C82.8892 70.506 83.0845 70.5861 83.2446 70.7462C83.4087 70.9103 83.4907 71.1056 83.4907 71.3322C83.4907 71.5587 83.4087 71.754 83.2446 71.9181C83.0845 72.0782 82.8892 72.1583 82.6587 72.1583ZM87.4751 70.7111H89.063V78.8087H87.4751V70.7111ZM86.6255 69.2345C86.9575 69.2345 87.1978 69.2501 87.3462 69.2814C87.1626 69.1837 87.0708 69.0079 87.0708 68.754C87.0708 68.4298 87.2036 68.1564 87.4692 67.9337C87.7817 67.672 88.229 67.5411 88.811 67.5411C89.1157 67.5411 89.3521 67.5646 89.52 67.6115L89.3735 68.4259C89.1743 68.3868 88.9712 68.3673 88.7642 68.3673C88.3618 68.3673 88.1606 68.504 88.1606 68.7775C88.1606 69.0822 88.4458 69.2345 89.0161 69.2345H89.7192V70.0607H86.6255V69.2345Z" fill="#DF3130"/>
<path d="M48.0877 56.3828H68.0877C69.8558 56.3828 71.5515 55.6804 72.8018 54.4302C74.052 53.1799 74.7544 51.4843 74.7544 49.7161V29.7161C74.7544 28.8321 74.4032 27.9842 73.7781 27.3591C73.153 26.734 72.3051 26.3828 71.4211 26.3828H54.7544C53.8703 26.3828 53.0225 26.734 52.3974 27.3591C51.7723 27.9842 51.4211 28.8321 51.4211 29.7161V51.3828C51.4211 54.1445 50.8494 56.3828 48.0877 56.3828Z" stroke="#DF3130" stroke-width="2" stroke-linecap="round" stroke-linejoin="round"/>
<path d="M44.7544 38.0495C44.7544 37.1654 45.1056 36.3176 45.7307 35.6924C46.3558 35.0673 47.2037 34.7161 48.0877 34.7161H51.4211V52.2161C51.4211 54.5161 50.3877 56.3828 48.0877 56.3828C45.7877 56.3828 44.7544 54.5161 44.7544 52.2161V38.0495Z" stroke="#DF3130" stroke-width="2" stroke-linecap="round" stroke-linejoin="round"/>
<path d="M59.7544 36.3828C60.6749 36.3828 61.4211 35.6366 61.4211 34.7162C61.4211 33.7957 60.6749 33.0495 59.7544 33.0495C58.8339 33.0495 58.0877 33.7957 58.0877 34.7162C58.0877 35.6366 58.8339 36.3828 59.7544 36.3828Z" fill="#DF3130" stroke="#DF3130" stroke-width="2" stroke-linecap="round"/>
<path d="M58.0877 44.7161H68.0877H58.0877ZM58.0877 49.7161H63.0877H58.0877Z" fill="#DF3130"/>
<path d="M58.0877 44.7161H68.0877M58.0877 49.7161H63.0877" stroke="#DF3130" stroke-width="2" stroke-linecap="round"/>
<defs>
<linearGradient id="paint0_linear_2_678" x1="59.7544" y1="110.196" x2="59.7544" y2="-2.53204" gradientUnits="userSpaceOnUse">
<stop stop-color="#F5B4B2"/>
<stop offset="1" stop-color="#F9DAD8"/>
</linearGradient>
</defs>
</svg>
